/* XPM */
static char*geheimnisdocked_mini[]={
"16 16 14 1",
"j c #bebebe",
"a c #a0a0a0",
". c None",
"k c #d0d0d0",
"b c #000000",
"# c #7c7c7c",
"i c #a00000",
"l c #b00000",
"f c #505050",
"g c #c00000",
"e c #d00000",
"d c #e00000",
"h c #ff0000",
"c c #787878",
"................",
"........#abacba.",
"........#abcbaa.",
"........#abbaaa.",
"..dee...#abfbaa.",
".dgggg..#abafba.",
"hgi.ggd.jkkkkkk.",
"dg...ge.........",
"di...ggddddddddg",
"dl...egggggggggi",
"dg...dgiiiidilei",
"dg...gi....d.i.i",
"dgg.dgi....d.i.i",
".ggggg.....d...i",
"..ggl...........",
"................"};
