/* XPM */
static char *geheimnisdock[]={
"24 24 75 2",
"Qt c None",
".c c #000000",
".i c #050505",
".J c #0e0e0e",
".q c #101010",
".C c #161616",
".g c #292929",
".B c #2c2c2c",
".r c #313131",
".e c #373737",
".j c #474747",
".l c #5d5d5d",
".b c #6e6e6e",
".H c #717171",
".f c #797979",
".h c #7c7c7c",
".D c #898989",
".7 c #8b1b1b",
".W c #900000",
"#f c #912929",
".S c #973737",
"#e c #980000",
"#g c #a00000",
".5 c #a25252",
".P c #a31b1b",
".a c #a5a5a5",
".d c #aaaaaa",
".M c #ae6e6e",
".L c #b00000",
".I c #b0b0b0",
".Z c #b40000",
"#b c #b66e6e",
".8 c #b73737",
".1 c #b80000",
".m c #bbbbbb",
"#d c #bc0000",
".Y c #bf0000",
".y c #c00000",
".# c #c0c0c0",
"#c c #c10e0e",
".9 c #c25252",
".U c #c30000",
".k c #c3c3c3",
".Q c #c5a5a5",
".4 c #c70000",
"#. c #c73737",
".R c #ca5252",
"#i c #cab2b2",
".v c #cb0000",
".X c #ce6e6e",
".G c #cf0000",
"#h c #d0c0c0",
".2 c #d18989",
".T c #d5a5a5",
".6 c #d63737",
"## c #d6cece",
".z c #d70000",
".K c #df0000",
".s c #e0c0c0",
"#a c #e15252",
".V c #e21b1b",
".n c #e2b2b2",
".E c #e4a5a5",
".0 c #e56e6e",
".3 c #e63737",
".w c #e67c7c",
".x c #e70000",
".A c #e88989",
".N c #ed6e6e",
".u c #ef0000",
".p c #ef6060",
".o c #f63737",
".O c #f70000",
".t c #f82929",
".F c #ff0000",
"QtQtQtQtQtQtQtQtQtQtQtQtQt.#.aQtQtQtQt.#.aQtQtQt",
"QtQtQtQtQtQtQtQtQtQtQtQtQt.b.c.dQtQt.#.e.cQtQtQt",
"QtQtQtQtQtQtQtQtQtQtQtQtQt.b.c.fQtQt.g.c.hQtQtQt",
"QtQtQtQtQtQtQtQtQtQtQtQtQt.b.c.f.#.g.i.j.kQtQtQt",
"QtQtQtQtQtQtQtQtQtQtQtQtQt.b.c.l.e.c.j.mQtQtQtQt",
"QtQtQt.n.o.o.pQtQtQtQtQtQt.b.c.q.c.r.kQtQtQtQtQt",
"Qt.s.t.u.u.v.v.u.wQtQtQtQt.b.c.c.c.rQtQtQtQtQtQt",
".s.o.x.y.y.y.y.y.z.AQtQtQt.b.c.B.C.c.DQtQtQtQtQt",
".E.F.G.y.y.y.y.y.y.oQtQtQt.b.c.H.I.g.J.DQtQtQtQt",
".F.K.y.L.MQt.y.y.y.G.NQtQt.b.c.fQtQt.g.c.hQtQtQt",
".O.G.y.P.QQt.R.y.y.G.NQtQt.b.c.fQtQt.#.e.c.dQtQt",
".u.y.y.SQtQt.T.y.y.U.V.nQt.#.a.kQtQtQt.#.a.kQtQt",
".u.y.WQtQtQtQt.X.y.y.z.u.u.u.u.u.u.u.u.u.u.u.u.Y",
".u.y.WQtQtQtQt.X.y.y.y.y.y.y.y.y.y.y.y.y.y.y.y.W",
".u.y.ZQtQtQtQt.0.v.y.y.y.y.y.y.y.y.y.y.y.y.y.y.W",
".u.y.yQtQtQtQt.N.G.y.1.L.L.L.L.L.z.G.L.1.Z.U.K.W",
".u.y.y.2QtQt.s.3.4.1.W.5.M.M.M.M.6.G.7.8.W.9.K.W",
".u.y.y#.QtQt.E.K.y.L.5##QtQtQtQt.N.G.S.X.W.E.K.W",
".u.y.y.y.XQt.u.y.y.L.MQtQtQtQtQt.N.G.S.X.W.E.K.W",
"#a.y.y.y#..X.z.y.y.P.QQtQtQtQtQt.N.G.S.T#b.E.K.W",
".T.y.y.y.y.y.y.y.y.SQtQtQtQtQtQt.N.G.SQtQt.E.K.W",
"Qt.2#c.y.y.y#d#e#fQtQtQtQtQtQtQtQtQtQtQtQtQtQtQt",
"QtQt.2.9#g#g.P.M#hQtQtQtQtQtQtQtQtQtQtQtQtQtQtQt",
"QtQtQt##.Q.Q#iQtQtQtQtQtQtQtQtQtQtQtQtQtQtQtQtQt"};
