/* XPM */
static char*geheimnis[]={
"32 32 6 1",
"# c #000000",
"d c #800000",
". c None",
"c c #c00000",
"a c #585858",
"b c #ff0000",
"................................",
"..................##......##....",
"..................##a....###....",
"..................##a...###.....",
"..................##a..###a.....",
"..................##a.###a......",
"..................##a###a.......",
".....bbbb.........#####a........",
"...bbbbccbb.......#####a........",
"..bbcccccccb......######........",
".bbcccccccccb.....##aa###.......",
".bbcccccccccb.....##a..###......",
"bbcccd..cccccb....##a...###.....",
"bbcccd..cccccb....##a....###....",
"bcccd....ccccb....##a.....##a...",
"bcccd....cccccb.................",
"bccd......ccccbbbbbbbbbbbbbbbbbc",
"bccd......cccccccccccccccccccccd",
"bccd......cccccccccccccccccccccd",
"bccc......bccccccccccccccccccccd",
"bccc......bcccccccccccbccccccbcd",
"bccc......bcccddddddddbcddcddbcd",
"bcccc....bcccdd.......bcd.cd.bcd",
"bcccc....bcccd........bcd.cd.bcd",
"bccccc..bccccd........bcd.cd.bcd",
"bccccc..bccccd........bcd.cd.bcd",
".cccccccccccd.........bcd....bcd",
".cccccccccccd.........bcd....bcd",
"..ccccccccdd....................",
"...ccccccdd.....................",
".....dddd.......................",
"................................"};
